# xmcd
#
# Track frame offsets:
#	150
#	16845
#	33248
#	51713
#	63660
#	78160
#	97678
#	112945
#	128960
#	150118
#
# Disc length: 2192 seconds
#
# Revision: 3
# Processed by: cddbd v1.5.1PL0 Copyright (c) Steve Scherf et al.
# Submitted via: MusicManager 7.0.6.0 
#
DISCID=6d088e0a
DTITLE=Eddie Rabbitt - Jersey Boy
DYEAR=1990
DGENRE=Country
TTITLE0=Tennessee Born And Bred
TTITLE1=On Second Thought
TTITLE2=Runnin' With The Wind
TTITLE3=They're Tearin' My Little Town Down
TTITLE4=American Boy
TTITLE5=Hold On To Me (The Rain Song)
TTITLE6=Feel Like A Stranger
TTITLE7=It's Lonely Out Tonite
TTITLE8=Jersey Boy
TTITLE9=Only One Love In My Life
EXTD=
EXTT0=
EXTT1=
EXTT2=
EXTT3=
EXTT4=
EXTT5=
EXTT6=
EXTT7=
EXTT8=
EXTT9=
PLAYORDER=
